<svg width="301" height="326" viewBox="0 0 301 326" fill="none" xmlns="http://www.w3.org/2000/svg">
<line x1="150.114" y1="255.487" x2="0.113615" y2="290.487" stroke="white"/>
<line y1="-0.5" x2="154.029" y2="-0.5" transform="matrix(0.973841 0.22723 0.22723 -0.973841 151 255)" stroke="white"/>
<line y1="-0.5" x2="154.029" y2="-0.5" transform="matrix(-0.973841 -0.22723 -0.22723 0.973841 150 326)" stroke="white"/>
<line x1="150.886" y1="325.513" x2="300.886" y2="290.513" stroke="white"/>
<line x1="150.114" y1="0.486921" x2="0.113615" y2="35.4869" stroke="white"/>
<line y1="-0.5" x2="154.029" y2="-0.5" transform="matrix(0.973841 0.22723 0.22723 -0.973841 151 0)" stroke="white"/>
<line y1="-0.5" x2="154.029" y2="-0.5" transform="matrix(-0.973841 -0.22723 -0.22723 0.973841 150 71)" stroke="white"/>
<line x1="150.886" y1="70.5131" x2="300.886" y2="35.5131" stroke="white"/>
<line x1="300.5" y1="36" x2="300.5" y2="291" stroke="white"/>
<line x1="0.5" y1="35" x2="0.500011" y2="291" stroke="white"/>
<line x1="150.5" y1="2.18557e-08" x2="150.5" y2="108" stroke="white"/>
<line x1="150.5" y1="218" x2="150.5" y2="326" stroke="white"/>
<path d="M150.556 115C176.82 115 198.111 136.291 198.111 162.556C198.111 188.82 176.82 210.111 150.556 210.111C124.291 210.111 103 188.82 103 162.556C103 136.292 124.292 115 150.556 115ZM136.082 125.338C129.231 125.338 123.677 130.893 123.677 137.744C123.677 144.596 129.231 150.15 136.082 150.15C142.934 150.15 148.488 144.596 148.488 137.744C148.488 130.893 142.934 125.338 136.082 125.338Z" fill="white"/>
<path d="M151.311 108C180.586 108 215.378 121.555 242.802 135.068C256.524 141.83 268.423 148.591 276.89 153.662C281.123 156.197 284.5 158.311 286.818 159.791C287.977 160.531 288.873 161.112 289.479 161.509C289.781 161.707 290.012 161.86 290.167 161.963C290.244 162.014 290.303 162.053 290.342 162.079C290.361 162.092 290.377 162.102 290.387 162.108C290.388 162.109 290.389 162.11 290.391 162.111C290.447 162.147 290.496 162.194 290.536 162.252C290.537 162.253 290.538 162.255 290.539 162.257C290.543 162.263 290.546 162.271 290.55 162.277C290.633 162.416 290.643 162.579 290.586 162.721C290.583 162.729 290.578 162.735 290.574 162.743C290.55 162.796 290.517 162.845 290.475 162.888C290.468 162.894 290.46 162.9 290.453 162.906C290.438 162.92 290.423 162.935 290.405 162.947L290.404 162.946H290.403C290.404 162.948 290.404 162.948 290.404 162.948C290.404 162.949 290.402 162.949 290.401 162.95C290.399 162.952 290.394 162.954 290.39 162.957C290.38 162.964 290.364 162.974 290.345 162.987C290.305 163.014 290.247 163.054 290.17 163.106C290.015 163.211 289.784 163.366 289.481 163.567C288.876 163.971 287.981 164.563 286.822 165.315C284.503 166.821 281.126 168.971 276.893 171.55C268.426 176.708 256.528 183.586 242.806 190.464C215.382 204.21 180.588 218 151.311 218C122.033 218 87.2401 204.21 59.8164 190.464C46.0942 183.586 34.1965 176.708 25.7295 171.55C21.4958 168.971 18.1186 166.821 15.7998 165.315C14.6406 164.563 13.7451 163.971 13.1396 163.567C12.8373 163.366 12.6069 163.211 12.4521 163.106C12.3749 163.054 12.3156 163.014 12.2764 162.987C12.2571 162.974 12.2423 162.964 12.2324 162.957C12.2276 162.954 12.2232 162.952 12.2207 162.95C12.2196 162.949 12.2184 162.949 12.2178 162.948C12.2178 162.948 12.218 162.948 12.2188 162.946L12.2168 162.945V162.947C12.1964 162.933 12.1788 162.917 12.1611 162.9C12.1567 162.896 12.1517 162.893 12.1475 162.889C12.131 162.872 12.1173 162.854 12.1035 162.836C12.0974 162.828 12.0896 162.821 12.084 162.812C12.0829 162.811 12.0821 162.809 12.0811 162.808C11.9789 162.651 11.9711 162.445 12.0723 162.277C12.0762 162.271 12.0787 162.263 12.083 162.257C12.0841 162.255 12.0849 162.254 12.0859 162.252C12.1214 162.2 12.166 162.158 12.2148 162.124C12.2169 162.123 12.2186 162.121 12.2207 162.119L12.2217 162.118C12.2223 162.118 12.2236 162.117 12.2246 162.116C12.2271 162.115 12.2307 162.112 12.2354 162.108C12.2453 162.102 12.2608 162.092 12.2803 162.079C12.3195 162.053 12.3781 162.014 12.4551 161.963C12.6099 161.86 12.8409 161.707 13.1436 161.509C13.7489 161.112 14.6439 160.531 15.8027 159.791C18.1215 158.311 21.4988 156.198 25.7324 153.662C34.1994 148.591 46.0971 141.83 59.8193 135.068C87.2433 121.555 122.035 108 151.311 108ZM151.311 109C122.281 109 87.667 122.462 60.2617 135.966C46.5696 142.713 34.696 149.46 26.2461 154.521C22.0215 157.051 18.6524 159.159 16.3408 160.634C15.1852 161.371 14.2936 161.951 13.6914 162.346C13.5851 162.415 13.4876 162.479 13.3994 162.537C13.4885 162.597 13.5865 162.663 13.6943 162.735C14.2966 163.137 15.189 163.726 16.3447 164.477C18.6563 165.977 22.0247 168.122 26.249 170.695C34.699 175.843 46.5726 182.707 60.2646 189.57C87.6702 203.307 122.283 217 151.311 217C180.338 217 214.952 203.307 242.357 189.57C256.049 182.707 267.922 175.843 276.372 170.695C280.597 168.122 283.966 165.977 286.277 164.477C287.433 163.726 288.324 163.137 288.927 162.735C289.034 162.664 289.133 162.597 289.222 162.537C289.134 162.479 289.037 162.415 288.931 162.346C288.328 161.951 287.437 161.371 286.281 160.634C283.97 159.159 280.6 157.051 276.376 154.521C267.926 149.46 256.052 142.713 242.36 135.966C214.955 122.462 180.34 109 151.311 109Z" fill="white"/>
</svg>
