<svg width="301" height="326" viewBox="0 0 301 326" fill="none" xmlns="http://www.w3.org/2000/svg">
<line x1="150.114" y1="255.487" x2="0.113615" y2="290.487" stroke="#1E1E1E"/>
<line y1="-0.5" x2="154.029" y2="-0.5" transform="matrix(0.973841 0.22723 0.22723 -0.973841 151 255)" stroke="#1E1E1E"/>
<line y1="-0.5" x2="154.029" y2="-0.5" transform="matrix(-0.973841 -0.22723 -0.22723 0.973841 150 326)" stroke="#1E1E1E"/>
<line x1="150.886" y1="325.513" x2="300.886" y2="290.513" stroke="#1E1E1E"/>
<line x1="150.114" y1="0.486921" x2="0.113615" y2="35.4869" stroke="#1E1E1E"/>
<line y1="-0.5" x2="154.029" y2="-0.5" transform="matrix(0.973841 0.22723 0.22723 -0.973841 151 0)" stroke="#1E1E1E"/>
<line y1="-0.5" x2="154.029" y2="-0.5" transform="matrix(-0.973841 -0.22723 -0.22723 0.973841 150 71)" stroke="#1E1E1E"/>
<line x1="150.886" y1="70.5131" x2="300.886" y2="35.5131" stroke="#1E1E1E"/>
<line x1="300.5" y1="36" x2="300.5" y2="291" stroke="#1E1E1E"/>
<line x1="0.5" y1="35" x2="0.500011" y2="291" stroke="#1E1E1E"/>
<line x1="150.5" y1="2.18557e-08" x2="150.5" y2="108" stroke="#1E1E1E"/>
<line x1="150.5" y1="218" x2="150.5" y2="326" stroke="#1E1E1E"/>
<path d="M150.556 115C176.82 115 198.111 136.291 198.111 162.556C198.111 188.82 176.82 210.111 150.556 210.111C124.291 210.111 103 188.82 103 162.556C103 136.292 124.292 115 150.556 115ZM136.082 125.338C129.231 125.338 123.677 130.893 123.677 137.744C123.677 144.596 129.231 150.15 136.082 150.15C142.934 150.15 148.488 144.596 148.488 137.744C148.488 130.893 142.934 125.338 136.082 125.338Z" fill="#1E1E1E"/>
<path d="M151.311 108C180.586 108 215.378 121.555 242.802 135.068C256.525 141.83 268.423 148.591 276.89 153.662C281.124 156.198 284.5 158.311 286.819 159.791C287.978 160.531 288.873 161.112 289.479 161.509C289.782 161.707 290.012 161.86 290.167 161.963C290.244 162.014 290.303 162.053 290.342 162.079C290.362 162.092 290.377 162.102 290.387 162.108C290.392 162.112 290.395 162.115 290.398 162.116C290.399 162.117 290.4 162.118 290.401 162.118H290.4L290.402 162.119C290.404 162.121 290.405 162.123 290.408 162.124C290.431 162.14 290.454 162.159 290.475 162.18C290.486 162.191 290.496 162.204 290.506 162.216C290.516 162.228 290.527 162.239 290.536 162.252C290.537 162.254 290.538 162.255 290.539 162.257C290.544 162.263 290.546 162.271 290.55 162.277C290.581 162.328 290.603 162.382 290.614 162.438C290.629 162.516 290.623 162.597 290.6 162.676C290.595 162.691 290.592 162.706 290.586 162.721C290.583 162.729 290.578 162.735 290.575 162.743C290.55 162.795 290.519 162.844 290.477 162.886C290.468 162.895 290.458 162.903 290.449 162.911C290.435 162.923 290.421 162.937 290.406 162.947L290.405 162.946H290.404C290.405 162.948 290.405 162.948 290.405 162.948C290.404 162.949 290.403 162.949 290.402 162.95C290.399 162.952 290.395 162.954 290.39 162.957C290.38 162.964 290.365 162.974 290.345 162.987C290.306 163.014 290.248 163.054 290.17 163.106C290.015 163.211 289.784 163.366 289.482 163.567C288.876 163.971 287.982 164.563 286.823 165.315C284.504 166.821 281.127 168.971 276.893 171.55C268.426 176.708 256.528 183.586 242.806 190.464C215.382 204.21 180.588 218 151.311 218C122.034 218 87.2405 204.21 59.8167 190.464C46.0944 183.586 34.1968 176.708 25.7298 171.55C21.496 168.971 18.1189 166.821 15.8001 165.315C14.6408 164.563 13.7454 163.971 13.14 163.567C12.8375 163.366 12.6073 163.211 12.4525 163.106C12.3751 163.054 12.3159 163.014 12.2767 162.987C12.2573 162.974 12.2426 162.964 12.2327 162.957C12.2279 162.954 12.2235 162.952 12.221 162.95C12.2198 162.949 12.2187 162.949 12.2181 162.948C12.218 162.948 12.2182 162.948 12.2191 162.946L12.2171 162.945V162.947C12.2016 162.937 12.189 162.923 12.1751 162.911C12.1652 162.903 12.1542 162.895 12.1448 162.886C12.1031 162.844 12.0711 162.795 12.0472 162.743C12.0436 162.735 12.0386 162.728 12.0355 162.721C11.9789 162.579 11.9892 162.416 12.0726 162.277C12.0765 162.271 12.079 162.263 12.0833 162.257C12.0844 162.255 12.0852 162.254 12.0862 162.252C12.0951 162.239 12.1057 162.228 12.1155 162.216C12.1245 162.205 12.1329 162.194 12.1429 162.184L12.1517 162.175C12.1714 162.156 12.193 162.139 12.2151 162.124C12.2172 162.123 12.2189 162.121 12.221 162.119L12.222 162.118C12.2226 162.118 12.2238 162.117 12.2249 162.116C12.2274 162.115 12.2309 162.112 12.2357 162.108C12.2456 162.102 12.261 162.092 12.2806 162.079C12.3198 162.053 12.3783 162.014 12.4554 161.963C12.6102 161.86 12.8412 161.707 13.1439 161.509C13.7493 161.112 14.6441 160.531 15.803 159.791C18.1218 158.311 21.499 156.198 25.7327 153.662C34.1998 148.591 46.0973 141.83 59.8196 135.068C87.2437 121.555 122.036 108 151.311 108ZM151.311 109C122.282 109 87.6674 122.462 60.262 135.966C46.5698 142.713 34.6964 149.46 26.2464 154.521C22.0217 157.051 18.6528 159.159 16.3411 160.634C15.1854 161.371 14.2939 161.951 13.6917 162.346C13.5854 162.415 13.4879 162.479 13.3997 162.537C13.4888 162.597 13.5868 162.663 13.6946 162.735C14.2969 163.137 15.1892 163.726 16.345 164.477C18.6566 165.977 22.0249 168.122 26.2493 170.695C34.6993 175.843 46.5728 182.707 60.265 189.57C87.6706 203.307 122.284 217 151.311 217C180.338 217 214.952 203.307 242.358 189.57C256.05 182.707 267.922 175.843 276.372 170.695C280.597 168.122 283.966 165.977 286.278 164.477C287.433 163.726 288.325 163.137 288.927 162.735C289.035 162.664 289.133 162.597 289.222 162.537C289.134 162.479 289.037 162.415 288.931 162.346C288.329 161.951 287.437 161.371 286.282 160.634C283.97 159.159 280.601 157.051 276.376 154.521C267.926 149.46 256.053 142.713 242.361 135.966C214.955 122.462 180.34 109 151.311 109Z" fill="#1E1E1E"/>
</svg>
